<mxfile host="app.diagrams.net" agent="Mozilla/5.0 (Windows NT 10.0; Win64; x64) AppleWebKit/537.36 (KHTML, like Gecko) Chrome/129.0.0.0 Safari/537.36" version="24.8.0">
  <diagram name="Page-1" id="gO5l_1pfBc551TS5lJ93">
    <mxGraphModel dx="1300" dy="1678" grid="1" gridSize="10" guides="1" tooltips="1" connect="1" arrows="1" fold="1" page="1" pageScale="1" pageWidth="827" pageHeight="1169" math="0" shadow="0">
      <root>
        <mxCell id="0" />
        <mxCell id="1" parent="0" />
        <mxCell id="qi1b9wg_Xymta8NOrjeN-1" value="BDDDAO (modèle)" style="html=1;whiteSpace=wrap;" vertex="1" parent="1">
          <mxGeometry x="320" y="150" width="120" height="50" as="geometry" />
        </mxCell>
        <mxCell id="qi1b9wg_Xymta8NOrjeN-3" value="PartieController (controller)" style="html=1;whiteSpace=wrap;" vertex="1" parent="1">
          <mxGeometry x="478.5" y="150" width="121.5" height="50" as="geometry" />
        </mxCell>
        <mxCell id="qi1b9wg_Xymta8NOrjeN-4" value="PartieVue (vue)" style="html=1;whiteSpace=wrap;" vertex="1" parent="1">
          <mxGeometry x="640" y="150" width="120" height="50" as="geometry" />
        </mxCell>
        <mxCell id="qi1b9wg_Xymta8NOrjeN-7" value="" style="endArrow=none;dashed=1;html=1;rounded=0;fontSize=12;startSize=8;endSize=8;curved=1;exitX=0.5;exitY=1;exitDx=0;exitDy=0;" edge="1" parent="1" source="qi1b9wg_Xymta8NOrjeN-29">
          <mxGeometry width="50" height="50" relative="1" as="geometry">
            <mxPoint x="240" y="210" as="sourcePoint" />
            <mxPoint x="380" y="560" as="targetPoint" />
          </mxGeometry>
        </mxCell>
        <mxCell id="qi1b9wg_Xymta8NOrjeN-9" value="" style="endArrow=none;dashed=1;html=1;rounded=0;fontSize=12;startSize=8;endSize=8;curved=1;entryX=0.5;entryY=1;entryDx=0;entryDy=0;" edge="1" parent="1" source="qi1b9wg_Xymta8NOrjeN-24" target="qi1b9wg_Xymta8NOrjeN-3">
          <mxGeometry width="50" height="50" relative="1" as="geometry">
            <mxPoint x="540" y="440" as="sourcePoint" />
            <mxPoint x="510" y="160" as="targetPoint" />
          </mxGeometry>
        </mxCell>
        <mxCell id="qi1b9wg_Xymta8NOrjeN-10" value="" style="endArrow=none;dashed=1;html=1;rounded=0;fontSize=12;startSize=8;endSize=8;curved=1;exitX=0.5;exitY=1;exitDx=0;exitDy=0;" edge="1" parent="1" source="qi1b9wg_Xymta8NOrjeN-20">
          <mxGeometry width="50" height="50" relative="1" as="geometry">
            <mxPoint x="460" y="210" as="sourcePoint" />
            <mxPoint x="700" y="560" as="targetPoint" />
          </mxGeometry>
        </mxCell>
        <mxCell id="qi1b9wg_Xymta8NOrjeN-11" value="Partie (modèle)" style="html=1;whiteSpace=wrap;" vertex="1" parent="1">
          <mxGeometry x="160" y="150" width="120" height="50" as="geometry" />
        </mxCell>
        <mxCell id="qi1b9wg_Xymta8NOrjeN-12" value="" style="endArrow=none;dashed=1;html=1;rounded=0;fontSize=12;startSize=8;endSize=8;curved=1;exitX=0.5;exitY=1;exitDx=0;exitDy=0;" edge="1" parent="1" source="qi1b9wg_Xymta8NOrjeN-13">
          <mxGeometry width="50" height="50" relative="1" as="geometry">
            <mxPoint x="70" y="210" as="sourcePoint" />
            <mxPoint x="220" y="560" as="targetPoint" />
          </mxGeometry>
        </mxCell>
        <mxCell id="qi1b9wg_Xymta8NOrjeN-14" value="" style="endArrow=none;dashed=1;html=1;rounded=0;fontSize=12;startSize=8;endSize=8;curved=1;exitX=0.5;exitY=1;exitDx=0;exitDy=0;" edge="1" parent="1" source="qi1b9wg_Xymta8NOrjeN-11" target="qi1b9wg_Xymta8NOrjeN-13">
          <mxGeometry width="50" height="50" relative="1" as="geometry">
            <mxPoint x="220" y="200" as="sourcePoint" />
            <mxPoint x="220" y="440" as="targetPoint" />
          </mxGeometry>
        </mxCell>
        <mxCell id="qi1b9wg_Xymta8NOrjeN-13" value="" style="html=1;points=[[0,0,0,0,5],[0,1,0,0,-5],[1,0,0,0,5],[1,1,0,0,-5]];perimeter=orthogonalPerimeter;outlineConnect=0;targetShapes=umlLifeline;portConstraint=eastwest;newEdgeStyle={&quot;curved&quot;:0,&quot;rounded&quot;:0};" vertex="1" parent="1">
          <mxGeometry x="215" y="220" width="10" height="300" as="geometry" />
        </mxCell>
        <mxCell id="qi1b9wg_Xymta8NOrjeN-15" value="" style="endArrow=classic;html=1;rounded=0;fontSize=12;startSize=8;endSize=8;curved=1;entryX=0;entryY=0;entryDx=0;entryDy=5;entryPerimeter=0;" edge="1" parent="1" target="qi1b9wg_Xymta8NOrjeN-13">
          <mxGeometry width="50" height="50" relative="1" as="geometry">
            <mxPoint x="100" y="225" as="sourcePoint" />
            <mxPoint x="185" y="220" as="targetPoint" />
          </mxGeometry>
        </mxCell>
        <mxCell id="qi1b9wg_Xymta8NOrjeN-16" value="1 : tour()" style="edgeLabel;html=1;align=center;verticalAlign=middle;resizable=0;points=[];fontSize=12;" vertex="1" connectable="0" parent="qi1b9wg_Xymta8NOrjeN-15">
          <mxGeometry x="-0.4892" y="-2" relative="1" as="geometry">
            <mxPoint x="30" y="-2" as="offset" />
          </mxGeometry>
        </mxCell>
        <mxCell id="qi1b9wg_Xymta8NOrjeN-17" value="" style="endArrow=classic;html=1;rounded=0;fontSize=12;startSize=8;endSize=8;edgeStyle=orthogonalEdgeStyle;" edge="1" parent="1" source="qi1b9wg_Xymta8NOrjeN-13" target="qi1b9wg_Xymta8NOrjeN-13">
          <mxGeometry width="50" height="50" relative="1" as="geometry">
            <mxPoint x="230" y="241" as="sourcePoint" />
            <mxPoint x="280" y="310" as="targetPoint" />
            <Array as="points">
              <mxPoint x="281" y="241" />
              <mxPoint x="281" y="290" />
            </Array>
          </mxGeometry>
        </mxCell>
        <mxCell id="qi1b9wg_Xymta8NOrjeN-18" value="2 : piocherCarte(Joueur)" style="edgeLabel;html=1;align=center;verticalAlign=middle;resizable=0;points=[];fontSize=12;" vertex="1" connectable="0" parent="qi1b9wg_Xymta8NOrjeN-17">
          <mxGeometry x="-0.0124" y="1" relative="1" as="geometry">
            <mxPoint x="18" y="-1" as="offset" />
          </mxGeometry>
        </mxCell>
        <mxCell id="qi1b9wg_Xymta8NOrjeN-19" value="" style="endArrow=classic;html=1;rounded=0;fontSize=12;startSize=8;endSize=8;curved=1;entryX=0;entryY=0;entryDx=0;entryDy=5;entryPerimeter=0;" edge="1" parent="1" source="qi1b9wg_Xymta8NOrjeN-13" target="qi1b9wg_Xymta8NOrjeN-20">
          <mxGeometry width="50" height="50" relative="1" as="geometry">
            <mxPoint x="280" y="450" as="sourcePoint" />
            <mxPoint x="671.6842490748355" y="320" as="targetPoint" />
          </mxGeometry>
        </mxCell>
        <mxCell id="qi1b9wg_Xymta8NOrjeN-22" value="3 : miseAJourVue()" style="edgeLabel;html=1;align=center;verticalAlign=middle;resizable=0;points=[];fontSize=12;" vertex="1" connectable="0" parent="qi1b9wg_Xymta8NOrjeN-19">
          <mxGeometry x="0.1021" y="-2" relative="1" as="geometry">
            <mxPoint x="-24" as="offset" />
          </mxGeometry>
        </mxCell>
        <mxCell id="qi1b9wg_Xymta8NOrjeN-21" value="" style="endArrow=none;dashed=1;html=1;rounded=0;fontSize=12;startSize=8;endSize=8;curved=1;exitX=0.5;exitY=1;exitDx=0;exitDy=0;" edge="1" parent="1" source="qi1b9wg_Xymta8NOrjeN-4" target="qi1b9wg_Xymta8NOrjeN-20">
          <mxGeometry width="50" height="50" relative="1" as="geometry">
            <mxPoint x="700" y="200" as="sourcePoint" />
            <mxPoint x="700" y="440" as="targetPoint" />
          </mxGeometry>
        </mxCell>
        <mxCell id="qi1b9wg_Xymta8NOrjeN-20" value="" style="html=1;points=[[0,0,0,0,5],[0,1,0,0,-5],[1,0,0,0,5],[1,1,0,0,-5]];perimeter=orthogonalPerimeter;outlineConnect=0;targetShapes=umlLifeline;portConstraint=eastwest;newEdgeStyle={&quot;curved&quot;:0,&quot;rounded&quot;:0};" vertex="1" parent="1">
          <mxGeometry x="695" y="320" width="10" height="30" as="geometry" />
        </mxCell>
        <mxCell id="qi1b9wg_Xymta8NOrjeN-23" value="" style="endArrow=classic;html=1;rounded=0;fontSize=12;startSize=8;endSize=8;curved=1;dashed=1;exitX=0;exitY=1;exitDx=0;exitDy=-5;exitPerimeter=0;" edge="1" parent="1" source="qi1b9wg_Xymta8NOrjeN-20" target="qi1b9wg_Xymta8NOrjeN-13">
          <mxGeometry width="50" height="50" relative="1" as="geometry">
            <mxPoint x="620" y="470" as="sourcePoint" />
            <mxPoint x="670" y="420" as="targetPoint" />
          </mxGeometry>
        </mxCell>
        <mxCell id="qi1b9wg_Xymta8NOrjeN-25" value="" style="endArrow=none;dashed=1;html=1;rounded=0;fontSize=12;startSize=8;endSize=8;curved=1;entryX=0.5;entryY=1;entryDx=0;entryDy=0;" edge="1" parent="1" target="qi1b9wg_Xymta8NOrjeN-24">
          <mxGeometry width="50" height="50" relative="1" as="geometry">
            <mxPoint x="540" y="560" as="sourcePoint" />
            <mxPoint x="539" y="200" as="targetPoint" />
          </mxGeometry>
        </mxCell>
        <mxCell id="qi1b9wg_Xymta8NOrjeN-24" value="" style="html=1;points=[[0,0,0,0,5],[0,1,0,0,-5],[1,0,0,0,5],[1,1,0,0,-5]];perimeter=orthogonalPerimeter;outlineConnect=0;targetShapes=umlLifeline;portConstraint=eastwest;newEdgeStyle={&quot;curved&quot;:0,&quot;rounded&quot;:0};" vertex="1" parent="1">
          <mxGeometry x="534.25" y="370" width="10" height="30" as="geometry" />
        </mxCell>
        <mxCell id="qi1b9wg_Xymta8NOrjeN-26" value="" style="endArrow=classic;html=1;rounded=0;fontSize=12;startSize=8;endSize=8;curved=1;exitX=0;exitY=0;exitDx=0;exitDy=5;exitPerimeter=0;" edge="1" parent="1" source="qi1b9wg_Xymta8NOrjeN-24" target="qi1b9wg_Xymta8NOrjeN-13">
          <mxGeometry width="50" height="50" relative="1" as="geometry">
            <mxPoint x="490" y="470" as="sourcePoint" />
            <mxPoint x="540" y="420" as="targetPoint" />
          </mxGeometry>
        </mxCell>
        <mxCell id="qi1b9wg_Xymta8NOrjeN-27" value="4 : actionJoueur()" style="edgeLabel;html=1;align=center;verticalAlign=middle;resizable=0;points=[];fontSize=12;" vertex="1" connectable="0" parent="qi1b9wg_Xymta8NOrjeN-26">
          <mxGeometry x="-0.1262" relative="1" as="geometry">
            <mxPoint x="51" y="5" as="offset" />
          </mxGeometry>
        </mxCell>
        <mxCell id="qi1b9wg_Xymta8NOrjeN-28" value="" style="endArrow=classic;html=1;rounded=0;fontSize=12;startSize=8;endSize=8;curved=1;dashed=1;entryX=0;entryY=1;entryDx=0;entryDy=-5;entryPerimeter=0;" edge="1" parent="1" target="qi1b9wg_Xymta8NOrjeN-24">
          <mxGeometry width="50" height="50" relative="1" as="geometry">
            <mxPoint x="230" y="400" as="sourcePoint" />
            <mxPoint x="120" y="520" as="targetPoint" />
          </mxGeometry>
        </mxCell>
        <mxCell id="qi1b9wg_Xymta8NOrjeN-30" value="" style="endArrow=none;dashed=1;html=1;rounded=0;fontSize=12;startSize=8;endSize=8;curved=1;exitX=0.5;exitY=1;exitDx=0;exitDy=0;" edge="1" parent="1" source="qi1b9wg_Xymta8NOrjeN-1" target="qi1b9wg_Xymta8NOrjeN-29">
          <mxGeometry width="50" height="50" relative="1" as="geometry">
            <mxPoint x="380" y="200" as="sourcePoint" />
            <mxPoint x="380" y="520" as="targetPoint" />
          </mxGeometry>
        </mxCell>
        <mxCell id="qi1b9wg_Xymta8NOrjeN-29" value="" style="html=1;points=[[0,0,0,0,5],[0,1,0,0,-5],[1,0,0,0,5],[1,1,0,0,-5]];perimeter=orthogonalPerimeter;outlineConnect=0;targetShapes=umlLifeline;portConstraint=eastwest;newEdgeStyle={&quot;curved&quot;:0,&quot;rounded&quot;:0};" vertex="1" parent="1">
          <mxGeometry x="375" y="430" width="10" height="80" as="geometry" />
        </mxCell>
        <mxCell id="qi1b9wg_Xymta8NOrjeN-31" value="" style="endArrow=classic;html=1;rounded=0;fontSize=12;startSize=8;endSize=8;curved=1;entryX=0;entryY=0;entryDx=0;entryDy=5;entryPerimeter=0;" edge="1" parent="1" source="qi1b9wg_Xymta8NOrjeN-13" target="qi1b9wg_Xymta8NOrjeN-29">
          <mxGeometry width="50" height="50" relative="1" as="geometry">
            <mxPoint x="390" y="370" as="sourcePoint" />
            <mxPoint x="440" y="320" as="targetPoint" />
          </mxGeometry>
        </mxCell>
        <mxCell id="qi1b9wg_Xymta8NOrjeN-32" value="5 : sauvegardeTour()" style="edgeLabel;html=1;align=center;verticalAlign=middle;resizable=0;points=[];fontSize=12;" vertex="1" connectable="0" parent="qi1b9wg_Xymta8NOrjeN-31">
          <mxGeometry x="-0.0372" y="-3" relative="1" as="geometry">
            <mxPoint as="offset" />
          </mxGeometry>
        </mxCell>
        <mxCell id="qi1b9wg_Xymta8NOrjeN-33" value="" style="endArrow=classic;html=1;rounded=0;fontSize=12;startSize=8;endSize=8;edgeStyle=orthogonalEdgeStyle;" edge="1" parent="1">
          <mxGeometry width="50" height="50" relative="1" as="geometry">
            <mxPoint x="383.91999999999996" y="441" as="sourcePoint" />
            <mxPoint x="383.91999999999996" y="490" as="targetPoint" />
            <Array as="points">
              <mxPoint x="439.91999999999996" y="441" />
              <mxPoint x="439.91999999999996" y="490" />
            </Array>
          </mxGeometry>
        </mxCell>
        <mxCell id="qi1b9wg_Xymta8NOrjeN-34" value="6 : insertTour()" style="edgeLabel;html=1;align=center;verticalAlign=middle;resizable=0;points=[];fontSize=12;" vertex="1" connectable="0" parent="qi1b9wg_Xymta8NOrjeN-33">
          <mxGeometry x="-0.0124" y="1" relative="1" as="geometry">
            <mxPoint x="-1" y="1" as="offset" />
          </mxGeometry>
        </mxCell>
        <mxCell id="qi1b9wg_Xymta8NOrjeN-35" value="" style="endArrow=classic;html=1;rounded=0;fontSize=12;startSize=8;endSize=8;curved=1;dashed=1;exitX=0;exitY=1;exitDx=0;exitDy=-5;exitPerimeter=0;" edge="1" parent="1" source="qi1b9wg_Xymta8NOrjeN-29" target="qi1b9wg_Xymta8NOrjeN-13">
          <mxGeometry width="50" height="50" relative="1" as="geometry">
            <mxPoint x="685" y="570" as="sourcePoint" />
            <mxPoint x="215" y="570" as="targetPoint" />
          </mxGeometry>
        </mxCell>
        <mxCell id="qi1b9wg_Xymta8NOrjeN-36" value="" style="shape=umlDestroy;whiteSpace=wrap;html=1;strokeWidth=3;targetShapes=umlLifeline;" vertex="1" parent="1">
          <mxGeometry x="205" y="550" width="30" height="30" as="geometry" />
        </mxCell>
        <mxCell id="qi1b9wg_Xymta8NOrjeN-37" value="BOUNIOT Yanis" style="text;html=1;align=center;verticalAlign=middle;whiteSpace=wrap;rounded=0;fontSize=16;" vertex="1" parent="1">
          <mxGeometry x="430" y="80" width="60" height="30" as="geometry" />
        </mxCell>
      </root>
    </mxGraphModel>
  </diagram>
</mxfile>
